<svg xmlns="http://www.w3.org/2000/svg" viewBox="0 0 1200 800" role="img" aria-labelledby="title"><title id="title">Current</title><defs><linearGradient id="bg" x2="1" y2="1"><stop stop-color="#182d35"/><stop offset="1" stop-color="#073e46"/></linearGradient><linearGradient id="ribbon" x2="1" y2=".5"><stop stop-color="#4aa7a1"/><stop offset=".5" stop-color="#a6ecbc"/><stop offset="1" stop-color="#286e81"/></linearGradient><linearGradient id="ribbon2" x2="1" y2="0"><stop stop-color="#98dbc7"/><stop offset=".5" stop-color="#2e9da5"/><stop offset="1" stop-color="#164a65"/></linearGradient></defs><path fill="url(#bg)" d="M0 0h1200v800H0z"/><g fill="none" stroke-linecap="round"><path d="M-170 647C156 605 216 202 491 170S805 746 1342 65" stroke="#15545f" stroke-width="215"/><path d="M-170 647C156 605 216 202 491 170S805 746 1342 65" stroke="url(#ribbon)" stroke-width="147"/><path d="M-180 737C181 710 280 349 548 357S845 883 1320 257" stroke="#0c5264" stroke-width="93"/><path d="M-180 737C181 710 280 349 548 357S845 883 1320 257" stroke="url(#ribbon2)" stroke-width="64"/><path d="M-120 390C191 314 263 77 563 65S843 430 1284 -83" stroke="#81c8b9" stroke-width="3" opacity=".55"/></g><circle cx="913" cy="225" r="7" fill="#d6ffd3"/><circle cx="345" cy="590" r="4" fill="#d6ffd3"/></svg>
